<svg width="40" height="40" viewBox="0 0 40 40" fill="none" xmlns="http://www.w3.org/2000/svg">
  <rect width="40" height="40" rx="8" fill="#008000"/>
  <path d="M8 20C8 14.4772 12.4772 10 18 10H22C27.5228 10 32 14.4772 32 20V22C32 27.5228 27.5228 32 22 32H18C12.4772 32 8 27.5228 8 22V20Z" fill="#121212"/>
  <circle cx="14" cy="21" r="2" fill="#008000"/>
  <circle cx="26" cy="21" r="2" fill="#008000"/>
  <rect x="22" y="19" width="2" height="4" rx="1" fill="#008000"/>
  <rect x="24" y="21" width="2" height="4" rx="1" transform="rotate(-90 24 21)" fill="#008000"/>
  <path d="M18 24H22C23.1046 24 24 24.8954 24 26V26C24 27.1046 23.1046 28 22 28H18C16.8954 28 16 27.1046 16 26V26C16 24.8954 16.8954 24 18 24Z" fill="#008000"/>
</svg>

